<svg width="173" height="31" viewBox="0 0 173 31" fill="none" xmlns="http://www.w3.org/2000/svg">
<path d="M15.86 12.21C17.04 13.61 17.63 15.18 17.63 16.92C17.59 18.92 16.9 20.6 15.56 21.96C14.24 23.3 12.63 23.97 10.73 23.97H2.84C1.44 23.97 0.62 23.59 0.38 22.83C0.26 22.49 0.2 21.97 0.2 21.27V4.62C0.2 4.14 0.21 3.79 0.23 3.57C0.27 3.35 0.37 3.09 0.53 2.79C0.81 2.25 1.59 1.98 2.87 1.98H10.43C12.27 1.98 13.81 2.62 15.05 3.9C16.35 5.2 17 6.76 17 8.58C17 9.9 16.62 11.11 15.86 12.21ZM12.32 16.62C12.32 16.14 12.26 15.76 12.14 15.48C12.04 15.2 11.86 15 11.6 14.88C11.2 14.72 10.64 14.64 9.92 14.64C9.2 14.64 8.66 14.5 8.3 14.22C7.94 13.94 7.76 13.37 7.76 12.51C7.76 11.63 7.94 11.05 8.3 10.77C8.68 10.49 9.3 10.35 10.16 10.35C10.96 10.35 11.44 10.14 11.6 9.72C11.66 9.5 11.69 9.14 11.69 8.64C11.69 8.14 11.52 7.79 11.18 7.59C10.86 7.39 10.37 7.29 9.71 7.29H5.51V18.66H10.43C11.69 18.66 12.32 17.98 12.32 16.62ZM30.7545 9.87C30.8745 8.75 31.6645 8.19 33.1245 8.19C33.9045 8.19 34.4845 8.25 34.8645 8.37C35.2445 8.49 35.5045 8.7 35.6445 9C35.8045 9.3 35.8945 9.57 35.9145 9.81C35.9545 10.03 35.9745 10.37 35.9745 10.83V21.33C35.9745 21.79 35.9545 22.14 35.9145 22.38C35.8945 22.6 35.8145 22.86 35.6745 23.16C35.3945 23.68 34.7045 23.94 33.6045 23.94C32.5245 23.94 31.7945 23.81 31.4145 23.55C31.0545 23.27 30.8445 22.87 30.7845 22.35C30.0445 23.41 28.8045 23.94 27.0645 23.94C25.3445 23.94 23.7445 23.15 22.2645 21.57C20.7845 19.99 20.0445 18.16 20.0445 16.08C20.0445 13.98 20.7845 12.15 22.2645 10.59C23.7645 9.01 25.4045 8.22 27.1845 8.22C27.8645 8.22 28.4845 8.34 29.0445 8.58C29.6045 8.82 29.9945 9.05 30.2145 9.27C30.4345 9.47 30.6145 9.67 30.7545 9.87ZM25.2945 16.11C25.2945 16.77 25.5545 17.37 26.0745 17.91C26.5945 18.43 27.2245 18.69 27.9645 18.69C28.7045 18.69 29.3145 18.42 29.7945 17.88C30.2945 17.34 30.5445 16.75 30.5445 16.11C30.5445 15.45 30.3045 14.84 29.8245 14.28C29.3645 13.72 28.7345 13.44 27.9345 13.44C27.1545 13.44 26.5145 13.72 26.0145 14.28C25.5345 14.84 25.2945 15.45 25.2945 16.11ZM49.2856 22.02C48.5256 23.02 47.3156 23.52 45.6556 23.52C43.9956 23.52 42.4356 22.76 40.9756 21.24C39.5356 19.7 38.8156 17.91 38.8156 15.87C38.8156 13.83 39.5456 12.04 41.0056 10.5C42.4656 8.96 44.0656 8.19 45.8056 8.19C46.4856 8.19 47.1056 8.32 47.6656 8.58C48.2256 8.82 48.6056 9.05 48.8056 9.27C49.0256 9.47 49.1956 9.66 49.3156 9.84C49.3756 9.28 49.5756 8.86 49.9156 8.58C50.2756 8.28 50.8456 8.13 51.6256 8.13C52.4056 8.13 52.9756 8.19 53.3356 8.31C53.6956 8.43 53.9456 8.64 54.0856 8.94C54.2456 9.22 54.3356 9.47 54.3556 9.69C54.3956 9.91 54.4156 10.25 54.4156 10.71V23.13C54.4156 25.43 53.6156 27.28 52.0156 28.68C50.4156 30.1 48.6156 30.81 46.6156 30.81C45.0956 30.81 43.6456 30.44 42.2656 29.7C40.8856 28.96 40.1956 28.29 40.1956 27.69C40.1956 26.91 40.4956 26.22 41.0956 25.62C41.4756 25.2 41.7656 24.91 41.9656 24.75C42.1856 24.59 42.4356 24.51 42.7156 24.51C42.9956 24.51 43.2856 24.63 43.5856 24.87C44.5456 25.61 45.5856 25.98 46.7056 25.98C47.4656 25.98 48.0856 25.68 48.5656 25.08C49.0456 24.48 49.2856 23.76 49.2856 22.92V22.02ZM43.9456 15.9C43.9456 16.54 44.1956 17.12 44.6956 17.64C45.2156 18.16 45.8356 18.42 46.5556 18.42C47.2956 18.42 47.9056 18.16 48.3856 17.64C48.8656 17.1 49.1056 16.52 49.1056 15.9C49.1056 15.26 48.8756 14.67 48.4156 14.13C47.9556 13.57 47.3356 13.29 46.5556 13.29C45.7756 13.29 45.1456 13.56 44.6656 14.1C44.1856 14.64 43.9456 15.24 43.9456 15.9ZM57.7145 10.83C57.7145 10.37 57.7245 10.03 57.7445 9.81C57.7845 9.57 57.8745 9.3 58.0145 9C58.2945 8.48 59.0745 8.22 60.3545 8.22C61.3145 8.22 61.9945 8.39 62.3945 8.73C62.7345 9.01 62.9145 9.44 62.9345 10.02C62.9545 10.22 62.9645 10.51 62.9645 10.89V21.39C62.9645 21.85 62.9445 22.2 62.9045 22.44C62.8845 22.66 62.7945 22.92 62.6345 23.22C62.3745 23.74 61.6045 24 60.3245 24C59.0645 24 58.2945 23.73 58.0145 23.19C57.8745 22.89 57.7845 22.63 57.7445 22.41C57.7245 22.19 57.7145 21.84 57.7145 21.36V10.83ZM62.6345 5.28C62.4945 5.56 62.2345 5.76 61.8545 5.88C61.4745 6 60.9645 6.06 60.3245 6.06C59.7045 6.06 59.2045 6 58.8245 5.88C58.4445 5.76 58.1745 5.55 58.0145 5.25C57.8745 4.95 57.7845 4.69 57.7445 4.47C57.7245 4.23 57.7145 3.88 57.7145 3.42C57.7145 2.96 57.7245 2.62 57.7445 2.4C57.7845 2.16 57.8745 1.9 58.0145 1.62C58.2945 1.08 59.0745 0.809998 60.3545 0.809998C61.6145 0.809998 62.3745 1.08 62.6345 1.62C62.7945 1.92 62.8845 2.19 62.9045 2.43C62.9445 2.65 62.9645 2.99 62.9645 3.45C62.9645 3.91 62.9445 4.26 62.9045 4.5C62.8845 4.72 62.7945 4.98 62.6345 5.28ZM81.9209 12.21C83.1009 13.61 83.6909 15.18 83.6909 16.92C83.6509 18.92 82.9609 20.6 81.6209 21.96C80.3009 23.3 78.6909 23.97 76.7909 23.97H68.9009C67.5009 23.97 66.6809 23.59 66.4409 22.83C66.3209 22.49 66.2609 21.97 66.2609 21.27V4.62C66.2609 4.14 66.2709 3.79 66.2909 3.57C66.3309 3.35 66.4309 3.09 66.5909 2.79C66.8709 2.25 67.6509 1.98 68.9309 1.98H76.4909C78.3309 1.98 79.8709 2.62 81.1109 3.9C82.4109 5.2 83.0609 6.76 83.0609 8.58C83.0609 9.9 82.6809 11.11 81.9209 12.21ZM78.3809 16.62C78.3809 16.14 78.3209 15.76 78.2009 15.48C78.1009 15.2 77.9209 15 77.6609 14.88C77.2609 14.72 76.7009 14.64 75.9809 14.64C75.2609 14.64 74.7209 14.5 74.3609 14.22C74.0009 13.94 73.8209 13.37 73.8209 12.51C73.8209 11.63 74.0009 11.05 74.3609 10.77C74.7409 10.49 75.3609 10.35 76.2209 10.35C77.0209 10.35 77.5009 10.14 77.6609 9.72C77.7209 9.5 77.7509 9.14 77.7509 8.64C77.7509 8.14 77.5809 7.79 77.2409 7.59C76.9209 7.39 76.4309 7.29 75.7709 7.29H71.5709V18.66H76.4909C77.7509 18.66 78.3809 17.98 78.3809 16.62ZM96.8155 9.87C96.9355 8.75 97.7255 8.19 99.1855 8.19C99.9655 8.19 100.545 8.25 100.925 8.37C101.305 8.49 101.565 8.7 101.705 9C101.865 9.3 101.955 9.57 101.975 9.81C102.015 10.03 102.035 10.37 102.035 10.83V21.33C102.035 21.79 102.015 22.14 101.975 22.38C101.955 22.6 101.875 22.86 101.735 23.16C101.455 23.68 100.765 23.94 99.6655 23.94C98.5855 23.94 97.8555 23.81 97.4755 23.55C97.1155 23.27 96.9055 22.87 96.8455 22.35C96.1055 23.41 94.8655 23.94 93.1255 23.94C91.4055 23.94 89.8055 23.15 88.3255 21.57C86.8455 19.99 86.1055 18.16 86.1055 16.08C86.1055 13.98 86.8455 12.15 88.3255 10.59C89.8255 9.01 91.4655 8.22 93.2455 8.22C93.9255 8.22 94.5455 8.34 95.1055 8.58C95.6655 8.82 96.0555 9.05 96.2755 9.27C96.4955 9.47 96.6755 9.67 96.8155 9.87ZM91.3555 16.11C91.3555 16.77 91.6155 17.37 92.1355 17.91C92.6555 18.43 93.2855 18.69 94.0255 18.69C94.7655 18.69 95.3755 18.42 95.8555 17.88C96.3555 17.34 96.6055 16.75 96.6055 16.11C96.6055 15.45 96.3655 14.84 95.8855 14.28C95.4255 13.72 94.7955 13.44 93.9955 13.44C93.2155 13.44 92.5755 13.72 92.0755 14.28C91.5955 14.84 91.3555 15.45 91.3555 16.11ZM116.067 8.37C116.447 8.49 116.757 8.7 116.997 9C117.257 9.28 117.387 9.74 117.387 10.38C117.387 11.02 117.197 11.72 116.817 12.48C116.437 13.24 115.887 13.62 115.167 13.62C114.807 13.62 114.457 13.54 114.117 13.38C113.797 13.22 113.367 13.14 112.827 13.14C112.287 13.14 111.777 13.33 111.297 13.71C110.837 14.09 110.607 14.55 110.607 15.09V21.39C110.607 21.85 110.587 22.2 110.547 22.44C110.527 22.66 110.437 22.92 110.277 23.22C109.977 23.74 109.197 24 107.937 24C106.977 24 106.287 23.83 105.867 23.49C105.547 23.21 105.367 22.78 105.327 22.2C105.327 22 105.327 21.71 105.327 21.33V10.8C105.327 10.34 105.337 10 105.357 9.78C105.397 9.54 105.487 9.28 105.627 9C105.907 8.46 106.687 8.19 107.967 8.19C109.167 8.19 109.917 8.42 110.217 8.88C110.437 9.2 110.547 9.53 110.547 9.87C110.647 9.73 110.787 9.56 110.967 9.36C111.167 9.16 111.577 8.89 112.197 8.55C112.817 8.21 113.357 8.04 113.817 8.04C114.297 8.04 114.697 8.07 115.017 8.13C115.337 8.17 115.687 8.25 116.067 8.37ZM129.289 9.87C129.409 8.75 130.199 8.19 131.659 8.19C132.439 8.19 133.019 8.25 133.399 8.37C133.779 8.49 134.039 8.7 134.179 9C134.339 9.3 134.429 9.57 134.449 9.81C134.489 10.03 134.509 10.37 134.509 10.83V21.33C134.509 21.79 134.489 22.14 134.449 22.38C134.429 22.6 134.349 22.86 134.209 23.16C133.929 23.68 133.239 23.94 132.139 23.94C131.059 23.94 130.329 23.81 129.949 23.55C129.589 23.27 129.379 22.87 129.319 22.35C128.579 23.41 127.339 23.94 125.599 23.94C123.879 23.94 122.279 23.15 120.799 21.57C119.319 19.99 118.579 18.16 118.579 16.08C118.579 13.98 119.319 12.15 120.799 10.59C122.299 9.01 123.939 8.22 125.719 8.22C126.399 8.22 127.019 8.34 127.579 8.58C128.139 8.82 128.529 9.05 128.749 9.27C128.969 9.47 129.149 9.67 129.289 9.87ZM123.829 16.11C123.829 16.77 124.089 17.37 124.609 17.91C125.129 18.43 125.759 18.69 126.499 18.69C127.239 18.69 127.849 18.42 128.329 17.88C128.829 17.34 129.079 16.75 129.079 16.11C129.079 15.45 128.839 14.84 128.359 14.28C127.899 13.72 127.269 13.44 126.469 13.44C125.689 13.44 125.049 13.72 124.549 14.28C124.069 14.84 123.829 15.45 123.829 16.11ZM146.59 8.19C148.59 8.19 150.25 8.96 151.57 10.5C152.91 12.02 153.58 13.88 153.58 16.08V21.36C153.58 21.82 153.56 22.17 153.52 22.41C153.5 22.63 153.42 22.88 153.28 23.16C153 23.7 152.22 23.97 150.94 23.97C149.52 23.97 148.7 23.6 148.48 22.86C148.36 22.52 148.3 22.01 148.3 21.33V16.05C148.3 15.23 148.06 14.59 147.58 14.13C147.12 13.67 146.49 13.44 145.69 13.44C144.91 13.44 144.27 13.68 143.77 14.16C143.29 14.64 143.05 15.27 143.05 16.05V21.36C143.05 21.82 143.03 22.17 142.99 22.41C142.97 22.63 142.88 22.88 142.72 23.16C142.46 23.7 141.69 23.97 140.41 23.97C139.15 23.97 138.38 23.7 138.1 23.16C137.96 22.86 137.87 22.6 137.83 22.38C137.81 22.14 137.8 21.79 137.8 21.33V10.71C137.8 10.27 137.81 9.94 137.83 9.72C137.87 9.48 137.97 9.22 138.13 8.94C138.41 8.44 139.18 8.19 140.44 8.19C141.66 8.19 142.41 8.42 142.69 8.88C142.89 9.22 142.99 9.63 142.99 10.11C143.07 9.97 143.25 9.77 143.53 9.51C143.81 9.25 144.08 9.04 144.34 8.88C145.02 8.42 145.77 8.19 146.59 8.19ZM166.914 22.02C166.154 23.02 164.944 23.52 163.284 23.52C161.624 23.52 160.064 22.76 158.604 21.24C157.164 19.7 156.444 17.91 156.444 15.87C156.444 13.83 157.174 12.04 158.634 10.5C160.094 8.96 161.694 8.19 163.434 8.19C164.114 8.19 164.734 8.32 165.294 8.58C165.854 8.82 166.234 9.05 166.434 9.27C166.654 9.47 166.824 9.66 166.944 9.84C167.004 9.28 167.204 8.86 167.544 8.58C167.904 8.28 168.474 8.13 169.254 8.13C170.034 8.13 170.604 8.19 170.964 8.31C171.324 8.43 171.574 8.64 171.714 8.94C171.874 9.22 171.964 9.47 171.984 9.69C172.024 9.91 172.044 10.25 172.044 10.71V23.13C172.044 25.43 171.244 27.28 169.644 28.68C168.044 30.1 166.244 30.81 164.244 30.81C162.724 30.81 161.274 30.44 159.894 29.7C158.514 28.96 157.824 28.29 157.824 27.69C157.824 26.91 158.124 26.22 158.724 25.62C159.104 25.2 159.394 24.91 159.594 24.75C159.814 24.59 160.064 24.51 160.344 24.51C160.624 24.51 160.914 24.63 161.214 24.87C162.174 25.61 163.214 25.98 164.334 25.98C165.094 25.98 165.714 25.68 166.194 25.08C166.674 24.48 166.914 23.76 166.914 22.92V22.02ZM161.574 15.9C161.574 16.54 161.824 17.12 162.324 17.64C162.844 18.16 163.464 18.42 164.184 18.42C164.924 18.42 165.534 18.16 166.014 17.64C166.494 17.1 166.734 16.52 166.734 15.9C166.734 15.26 166.504 14.67 166.044 14.13C165.584 13.57 164.964 13.29 164.184 13.29C163.404 13.29 162.774 13.56 162.294 14.1C161.814 14.64 161.574 15.24 161.574 15.9Z" fill="#F0EBCE"/>
</svg>
